<?xml version="1.0" encoding="UTF-8"?>
<svg width="62px" height="62px" viewBox="0 0 62 62" version="1.1" xmlns="http://www.w3.org/2000/svg" xmlns:xlink="http://www.w3.org/1999/xlink">
    <!-- Generator: Sketch 54.1 (76490) - https://sketchapp.com -->
    <title>画板复制 21@1x</title>
    <desc>Created with Sketch.</desc>
    <g id="页面1" stroke="none" stroke-width="1" fill="none" fill-rule="evenodd">
        <g id="画板" transform="translate(-643.000000, -178.000000)">
            <rect id="矩形" fill="#FFFFFF" x="0" y="176" width="750" height="98"></rect>
            <g id="我-的" transform="translate(654.000000, 190.000000)" fill-rule="nonzero" stroke="#979797" stroke-width="4">
                <path d="M39.360234,40.875 L2.54620003,40.875 C1.7851864,40.875 1.02417278,40.4914384 0.548539268,39.9160959 C0.0729057544,39.244863 -0.117347651,38.4777397 0.0729057548,37.7106164 C1.97543981,27.9297945 9.87095614,20.6421233 19.3836264,19.875 C22.570371,19.875 26.0187139,20.2825342 29.4670569,21.6969178 C30.4658873,22.1044521 30.7988307,22.3681507 31.369591,22.6558219 C36.8869397,25.8202055 40.6920078,31.2859589 41.928655,37.7106164 C42.1189084,38.4777397 41.928655,39.244863 41.3578948,39.9160959 C40.8822612,40.4914384 40.1212476,40.875 39.360234,40.875 L39.360234,40.875 Z" id="路径"></path>
                <path d="M20.5,19.875 C15.256962,19.875 11,15.618038 11,10.375 C11,5.13196203 15.256962,0.875 20.5,0.875 C25.743038,0.875 30,5.13196203 30,10.375 C30,15.618038 25.743038,19.875 20.5,19.875 Z" id="路径"></path>
            </g>
            <text id="我的" font-family="PingFangSC-Regular, PingFang SC" font-size="24" font-weight="normal" fill="#999999">
                <tspan x="654" y="263">我的</tspan>
            </text>
        </g>
    </g>
</svg>