<?xml version="1.0" encoding="UTF-8"?>
<svg width="62px" height="62px" viewBox="0 0 62 62" version="1.1" xmlns="http://www.w3.org/2000/svg" xmlns:xlink="http://www.w3.org/1999/xlink">
    <!-- Generator: Sketch 54.1 (76490) - https://sketchapp.com -->
    <title>画板@1x</title>
    <desc>Created with Sketch.</desc>
    <g id="页面1" stroke="none" stroke-width="1" fill="none" fill-rule="evenodd">
        <g id="画板" transform="translate(-62.000000, -40.000000)">
            <rect id="矩形复制" fill="#FFFFFF" x="0" y="38" width="750" height="98"></rect>
            <text id="统计分析复制" font-family="PingFangSC-Regular, PingFang SC" font-size="24" font-weight="normal" fill="#457BF7">
                <tspan x="48" y="125">统计分析</tspan>
            </text>
            <g id="统计-(1)复制" transform="translate(70.000000, 48.000000)" fill="#457BF7" fill-rule="nonzero">
                <path d="M38.41875,0.0375 L6.41875,0.0375 C2.9,0.0375 0.01875,2.91875 0.01875,6.4375 L0.01875,38.4375 C0.01875,41.95625 2.9,44.8375 6.41875,44.8375 L38.41875,44.8375 C41.9375,44.8375 44.81875,41.95625 44.81875,38.4375 L44.81875,6.4375 C44.81875,2.91875 41.9375,0.0375 38.41875,0.0375 Z M12.81875,36.8375 C12.81875,37.71875 12.1,38.4375 11.21875,38.4375 L8.01875,38.4375 C7.1375,38.4375 6.41875,37.71875 6.41875,36.8375 L6.41875,20.8375 C6.41875,19.95625 7.1375,19.2375 8.01875,19.2375 L11.21875,19.2375 C12.1,19.2375 12.81875,19.95625 12.81875,20.8375 L12.81875,36.8375 Z M25.65,36.8375 C25.65,37.71875 24.93125,38.4375 24.05,38.4375 L20.85,38.4375 C19.96875,38.4375 19.25,37.71875 19.25,36.8375 L19.25,14.4375 C19.25,13.55625 19.96875,12.8375 20.85,12.8375 L24.05,12.8375 C24.93125,12.8375 25.65,13.55625 25.65,14.4375 L25.65,36.8375 Z M38.41875,36.8375 C38.41875,37.71875 37.7,38.4375 36.81875,38.4375 L33.61875,38.4375 C32.7375,38.4375 32.01875,37.71875 32.01875,36.8375 L32.01875,17.6375 C32.01875,16.75625 32.7375,16.0375 33.61875,16.0375 L36.81875,16.0375 C37.7,16.0375 38.41875,16.75625 38.41875,17.6375 L38.41875,36.8375 Z" id="形状"></path>
            </g>
        </g>
    </g>
</svg>