<?xml version="1.0" encoding="UTF-8"?>
<svg width="62px" height="62px" viewBox="0 0 62 62" version="1.1" xmlns="http://www.w3.org/2000/svg" xmlns:xlink="http://www.w3.org/1999/xlink">
    <!-- Generator: Sketch 54.1 (76490) - https://sketchapp.com -->
    <title>画板复制 15@1x</title>
    <desc>Created with Sketch.</desc>
    <g id="页面1" stroke="none" stroke-width="1" fill="none" fill-rule="evenodd">
        <g id="画板" transform="translate(-459.000000, -40.000000)">
            <rect id="矩形复制" fill="#FFFFFF" x="0" y="38" width="750" height="98"></rect>
            <g id="河道复制" transform="translate(472.000000, 46.000000)" fill-rule="nonzero">
                <path d="M40,19.8695 C40,22.8585 39.0382244,26.313 37.6325524,28.763 C34.2046856,34.741 30.135635,36.505 26.2638718,40.817 C21.7755857,45.766 20,49 20,49 C20,49 18.2244143,45.766 13.7361282,40.7925 C9.86436498,36.505 5.79531443,34.496 2.3674476,28.7385 C0.937114673,26.313 0,22.8585 0,19.8695 C6.8447782e-16,8.8935 8.95191122,0 20,0 C31.0480888,0 40,8.8935 40,19.8695 Z" id="路径" fill="#457BF7"></path>
                <path d="M21.348911,18.0368474 C21.348911,18.0368474 17.898614,16.780567 15.0983729,16.0557899 C14.5983299,15.9349937 8.17277678,13.9539361 12.7481706,12.7459741 C13.6482481,12.5043818 15.6734224,12.0936747 19.4237453,11.7071269 C20.5988464,11.5863307 22.8990444,10.3783687 20.4738357,9.43615843 C19.9987948,9.24288452 19.2237281,8.37315192 22.3990014,8.10740029 C23.1740681,8.03492258 24.5241843,6.58536825 21.9489626,7.1168715 C19.3987431,7.64837476 20.8238658,7.64837476 19.4237453,7.76917095 C18.0236247,7.88996714 14.623332,8.68722203 16.1484633,9.09792909 C17.6735946,9.48447691 20.4238314,9.82270625 18.223642,10.4266872 C17.6985968,10.5716427 13.8232632,10.8615535 11.2230394,11.4655345 C9.22286718,11.92456 5.4975465,14.0988915 7.64773159,17.6744589 C8.57281122,19.2206502 12.5731556,21.6124148 13.3232201,22.1922365 C16.8735257,24.9463898 17.9486183,26.9999251 17.9236161,26.9999251 L34,27 C34,27.0240843 30.6247095,21.2017077 21.348911,18.0368474" id="路径" fill="#FFFFFF"></path>
            </g>
            <text id="巡河复制" font-family="PingFangSC-Regular, PingFang SC" font-size="24" font-weight="normal" fill="#999999">
                <tspan x="468" y="125">巡河</tspan>
            </text>
        </g>
    </g>
</svg>