<?xml version="1.0" encoding="UTF-8"?>
<svg width="300px" height="300px" viewBox="0 0 300 300" version="1.1" xmlns="http://www.w3.org/2000/svg" xmlns:xlink="http://www.w3.org/1999/xlink">
    <title>车辆</title>
    <g id="页面-1" stroke="none" stroke-width="1" fill="none" fill-rule="evenodd">
        <g id="车辆">
            <path d="M232.469485,125.141177 L219.057721,86.6235295 L218.798897,86.2705883 C218.615289,85.8895413 218.40496,85.5219576 218.169485,85.1705883 C213.657721,76.5941176 205.387132,61 184.328309,61 L115.575368,61 C94.3106617,61.0470588 85.9871324,76.8882354 81.6694854,85.3764705 L80.5753676,87.5470588 L80.5753676,88.4882354 C80.5753676,88.6411766 80.4224264,88.7941178 80.4224266,88.9529412 L67.7988971,124.982353 C56.5636029,132.629412 50.0459559,143.688235 50.0459559,155.235294 L50.0459559,206.388235 C50.0513299,213.536215 52.5356334,220.461081 57.0753676,225.982353 L57.0753676,227.158823 L58.0283088,227.158823 C63.1969911,232.909513 70.2630258,236.607488 77.9341912,237.576471 C79.3283088,237.758823 80.7341912,237.864706 82.1400734,237.888235 C93.9776782,238.005311 104.865364,231.423965 110.263603,220.888235 L189.322427,220.576471 C195.541781,232.653834 208.670603,239.530052 222.140073,237.764706 C238.030601,235.953114 250.035289,222.511103 250.045956,206.517647 L250.045956,155.388235 C249.934191,144.076471 243.387132,132.935294 232.469485,125.141177 Z M95.6871324,183.5 C87.9210342,183.5 81.6253677,177.204333 81.6253677,169.438235 C81.6253677,161.672137 87.9210342,155.376471 95.6871324,155.376471 C103.453231,155.376471 109.748897,161.672137 109.748897,169.438235 C109.748897,177.204333 103.453231,183.5 95.6871324,183.5 Z M204.904779,183.5 C197.138681,183.5 190.843015,177.204333 190.843015,169.438235 C190.843015,161.672137 197.138681,155.376471 204.904779,155.376471 C212.670878,155.376471 218.966544,161.672137 218.966544,169.438235 C218.966544,177.204333 212.670878,183.5 204.904779,183.5 Z M81.6224266,135.611765 L96.7988971,92.3882354 L96.7988971,92.2352941 C101.328309,83.5 105.528309,77.4235295 115.669485,77.4235295 L184.593015,77.4235295 C194.887132,77.4235295 199.093015,83.8117648 203.78125,92.8588234 L204.093015,93.4823529 C204.093015,93.7941176 204.404779,94.1117646 204.563603,94.5764705 L218.969485,135.611765 L81.6224266,135.611765 Z" id="形状" fill="#FFFFFF" fill-rule="nonzero"></path>
            <circle id="椭圆形" stroke="#FFFFFF" stroke-width="8" cx="150" cy="150" r="146"></circle>
        </g>
    </g>
</svg>