<?xml version="1.0" encoding="UTF-8"?>
<svg width="300px" height="300px" viewBox="0 0 300 300" version="1.1" xmlns="http://www.w3.org/2000/svg" xmlns:xlink="http://www.w3.org/1999/xlink">
    <title>主页 (1)备份</title>
    <g id="页面-1" stroke="none" stroke-width="1" fill="none" fill-rule="evenodd">
        <g id="主页-(1)备份">
            <path d="M244.176178,131.920929 L164.453097,61.8327005 C160.424177,57.5039089 154.594624,55.0212196 148.427452,55 C142.350311,55 136.543266,57.4614697 132.671902,61.5568461 L55.8748518,131.85727 C52.048504,135.549475 50.9456155,140.918025 53.0613608,145.692428 C55.177106,150.445611 60.1063422,153.43757 65.5757688,153.43757 L72.4857027,153.43757 L72.4857027,224.90507 C72.4857027,236.002904 81.8940166,245 93.643155,245 L126.61727,245 C130.893776,245 134.697616,241.753406 134.697616,237.721689 L134.697616,190.189859 C134.697616,188.174 136.115615,186.370337 138.253868,186.370337 L161.527066,186.370337 C163.665319,186.370337 165.308398,188.174 165.308398,190.189859 L165.308398,237.721689 C165.308398,241.753406 168.887158,245 173.163665,245 L206.137779,245 C217.909426,245 227.520311,236.002904 227.520311,224.90507 L227.520311,153.458789 L234.407737,153.458789 C239.877163,153.458789 244.783892,150.48805 246.899637,145.734867 C249.060398,140.981684 247.980017,135.613134 244.176178,131.920929 Z" id="路径" fill="#5BDDFF" fill-rule="nonzero"></path>
            <circle id="椭圆形" stroke="#5BDDFF" stroke-width="8" cx="150" cy="150" r="146"></circle>
        </g>
    </g>
</svg>