<?xml version="1.0" encoding="UTF-8"?>
<svg width="300px" height="300px" viewBox="0 0 300 300" version="1.1" xmlns="http://www.w3.org/2000/svg" xmlns:xlink="http://www.w3.org/1999/xlink">
    <title>信息备份</title>
    <g id="页面-1" stroke="none" stroke-width="1" fill="none" fill-rule="evenodd">
        <g id="信息备份">
            <g id="信息-(1)" transform="translate(72.000000, 60.000000)" fill="#5BDDFF" fill-rule="nonzero">
                <path d="M137.619141,0 L59.0800781,0 C59.0800781,0 55.7753906,0.052734375 52.5058594,2.40820312 C49.2363281,4.78125 49.921875,7.6640625 49.921875,7.6640625 L49.921875,38.25 C49.921875,38.25 50.2910156,41.1855469 47.4785156,44.3144531 C44.6660156,47.4433594 40.4824219,47.9882812 40.4824219,47.9882812 L10.6347656,47.9882812 C10.6347656,47.9882812 5.64257812,47.7421875 3.3046875,49.5175781 C0.966796875,51.2929687 0.158203125,55.9511719 0.158203125,55.9511719 L0.158203125,163.001953 C0.158203125,172.388672 8.05078125,179.982422 17.7714844,179.982422 L137.601562,179.982422 C147.339844,179.982422 155.214844,172.371094 155.214844,163.001953 L155.214844,16.9804688 C155.214844,12.4804688 153.369141,8.15625 150.064453,4.97460937 C146.777344,1.79296875 142.294922,0 137.619141,0 Z M66.4277344,65.6894531 L116.349609,65.6894531 C118.775391,65.6894531 120.761719,67.5878906 120.761719,69.9433594 C120.761719,72.28125 118.792969,74.1972656 116.349609,74.1972656 L66.4277344,74.1972656 C64.0019531,74.1972656 62.015625,72.2988281 62.015625,69.9433594 C62.015625,67.6054688 64.0019531,65.6894531 66.4277344,65.6894531 Z M116.367188,134.244141 L38.2851562,134.244141 C35.859375,134.244141 33.8730469,132.345703 33.8730469,129.990234 C33.8730469,127.652344 35.8417969,125.736328 38.2851562,125.736328 L116.367188,125.736328 C118.792969,125.736328 120.779297,127.634766 120.779297,129.990234 C120.761719,132.328125 118.792969,134.244141 116.367188,134.244141 Z M116.367188,104.783203 L38.2851562,104.783203 C35.859375,104.783203 33.8730469,102.884766 33.8730469,100.529297 C33.8730469,98.1914062 35.8417969,96.2753906 38.2851562,96.2753906 L116.367188,96.2753906 C118.792969,96.2753906 120.779297,98.1738281 120.779297,100.529297 C120.761719,102.884766 118.792969,104.783203 116.367188,104.783203 Z" id="形状"></path>
                <path d="M7.5234375,39.3222656 L31.921875,39.3222656 C31.921875,39.3222656 40.7285156,37.1953125 40.0078125,28.8808594 L40.1835938,5.6953125 C40.1835938,5.6953125 40.0078125,-0.140625 36.3515625,3.39257812 C32.6953125,6.92578125 5.51953125,33.8378906 5.51953125,33.8378906 C5.51953125,33.8378906 -0.193359375,39.3222656 7.5234375,39.3222656 Z" id="路径"></path>
            </g>
            <circle id="椭圆形" stroke="#5BDDFF" stroke-width="8" cx="150" cy="150" r="146"></circle>
        </g>
    </g>
</svg>