<?xml version="1.0" standalone="no"?><!DOCTYPE svg PUBLIC "-//W3C//DTD SVG 1.1//EN" "http://www.w3.org/Graphics/SVG/1.1/DTD/svg11.dtd"><svg t="1603379516253" class="icon" viewBox="0 0 1024 1024" version="1.1" xmlns="http://www.w3.org/2000/svg" p-id="3083" xmlns:xlink="http://www.w3.org/1999/xlink" width="200" height="200"><defs><style type="text/css"></style></defs><path d="M351.665658 639.937506h0.699931c17.398301 0 31.696905 14.298604 31.696905 31.696905v320.668684c0 17.398301-14.298604 31.696905-31.696905 31.696905h-0.699931c-17.398301 0-31.696905-14.298604-31.696905-31.696905V671.634411c0-17.398301 14.298604-31.696905 31.696905-31.696905z" fill="#ffffff" p-id="3084"></path><path d="M0 672.234352v-0.699932C0 654.23611 14.198613 639.937506 31.696905 639.937506h320.668684c17.398301 0 31.696905 14.298604 31.696905 31.696905v0.699931c0 17.398301-14.298604 31.696905-31.696905 31.696905H31.696905C14.198613 703.931257 0 689.732643 0 672.234352z" fill="#ffffff" p-id="3085"></path><path d="M374.263451 649.136608l0.499951 0.499951c12.298799 12.298799 12.298799 32.496826 0 44.795625L55.494581 1013.601016c-12.298799 12.298799-32.496826 12.298799-44.795626 0l-0.499951-0.499952c-12.298799-12.298799-12.298799-32.496826 0-44.795625l319.168831-319.168831c12.398789-12.298799 32.596817-12.298799 44.895616 0z" fill="#ffffff" p-id="3086"></path><path d="M672.234352 639.937506h-0.699932c-17.398301 0-31.696905 14.298604-31.696904 31.696905v320.668684c0 17.398301 14.298604 31.696905 31.696904 31.696905h0.699932c17.398301 0 31.696905-14.298604 31.696905-31.696905V671.634411c0-17.398301-14.198613-31.696905-31.696905-31.696905z" fill="#ffffff" p-id="3087"></path><path d="M1023.90001 672.234352v-0.699932c0-17.398301-14.298604-31.696905-31.696905-31.696904H671.634411c-17.398301 0-31.696905 14.298604-31.696905 31.696904v0.699932c0 17.398301 14.298604 31.696905 31.696905 31.696905h320.668684c17.398301 0 31.596914-14.198613 31.596915-31.696905z" fill="#ffffff" p-id="3088"></path><path d="M649.636559 649.136608l-0.499951 0.499951c-12.298799 12.298799-12.298799 32.496826 0 44.795625l319.168831 319.168832c12.298799 12.298799 32.496826 12.298799 44.795625 0l0.499952-0.499952c12.298799-12.298799 12.298799-32.496826 0-44.795625L694.432184 649.136608c-12.298799-12.298799-32.496826-12.298799-44.795625 0z" fill="#ffffff" p-id="3089"></path><path d="M351.665658 383.962504h0.699931c17.398301 0 31.696905-14.298604 31.696905-31.696905V31.696905C383.962504 14.198613 369.76389 0 352.265599 0h-0.699932C334.267357 0 319.968753 14.198613 319.968753 31.696905v320.668684c0 17.398301 14.298604 31.596914 31.696905 31.596915z" fill="#ffffff" p-id="3090"></path><path d="M0 351.665658v0.699931C0 369.76389 14.198613 383.962504 31.696905 383.962504h320.668684c17.398301 0 31.696905-14.298604 31.696905-31.696905v-0.699932c0-17.398301-14.298604-31.696905-31.696905-31.696904H31.696905C14.198613 319.968753 0 334.267357 0 351.665658z" fill="#ffffff" p-id="3091"></path><path d="M374.263451 374.763402l0.499951-0.499951c12.298799-12.298799 12.298799-32.496826 0-44.795626L55.494581 10.298994C43.195782-1.999805 22.997754-1.999805 10.698955 10.298994l-0.499951 0.499951c-12.298799 12.298799-12.298799 32.496826 0 44.795626l319.168831 319.168831c12.398789 12.298799 32.596817 12.298799 44.895616 0z" fill="#ffffff" p-id="3092"></path><path d="M672.234352 383.962504h-0.699932c-17.398301 0-31.696905-14.298604-31.696904-31.696905V31.696905C639.937506 14.198613 654.23611 0 671.634411 0h0.699931C689.732643 0 703.931257 14.198613 703.931257 31.696905v320.668684c0 17.398301-14.198613 31.596914-31.696905 31.596915z" fill="#ffffff" p-id="3093"></path><path d="M1023.90001 351.665658v0.699931c0 17.398301-14.298604 31.696905-31.696905 31.696905H671.634411c-17.398301 0-31.696905-14.298604-31.696905-31.696905v-0.699931c0-17.398301 14.298604-31.696905 31.696905-31.696905h320.668684c17.398301 0 31.596914 14.298604 31.596915 31.696905z" fill="#ffffff" p-id="3094"></path><path d="M649.636559 374.763402l-0.499951-0.499951c-12.298799-12.298799-12.298799-32.496826 0-44.795626L968.405429 10.298994c12.298799-12.298799 32.496826-12.298799 44.795626 0l0.499951 0.499951c12.298799 12.298799 12.298799 32.496826 0 44.795626L694.432184 374.763402c-12.298799 12.298799-32.496826 12.298799-44.795625 0z" fill="#ffffff" p-id="3095"></path></svg>