<?xml version="1.0" standalone="no"?><!DOCTYPE svg PUBLIC "-//W3C//DTD SVG 1.1//EN" "http://www.w3.org/Graphics/SVG/1.1/DTD/svg11.dtd"><svg t="1603374233644" class="icon" viewBox="0 0 1024 1024" version="1.1" xmlns="http://www.w3.org/2000/svg" p-id="1159" xmlns:xlink="http://www.w3.org/1999/xlink" width="200" height="200"><defs><style type="text/css"></style></defs><path d="M650.4448 418.7648a32 32 0 0 1-48.9472-40.8576l3.7376-4.4032 213.2992-213.3504a32 32 0 0 1 48.9472 40.8064l-3.6864 4.4544-213.3504 213.3504z" fill="#ffffff" p-id="1160"></path><path d="M853.3504 138.6496c16.0256 0 29.3376 11.8784 31.6416 27.2896l0.3584 4.7104v161.4848a32 32 0 0 1-63.6928 4.7104l-0.3072-4.7104-0.0512-129.4848h-129.4848a32 32 0 0 1-31.6416-27.2384l-0.3584-4.7616c0-16.0256 11.8784-29.3376 27.2896-31.6416l4.7104-0.3584h161.536zM650.4448 605.2352a32 32 0 0 0-48.9472 40.8576l3.7376 4.4032 213.2992 213.3504a32 32 0 0 0 48.9472-40.8064l-3.6864-4.4544-213.3504-213.3504z" fill="#ffffff" p-id="1161"></path><path d="M853.3504 885.3504a32 32 0 0 0 31.6416-27.2896l0.3584-4.7104v-161.4848a32 32 0 0 0-63.6928-4.7104l-0.3072 4.7104-0.0512 129.4848h-129.4848a32 32 0 0 0-31.6416 27.2384l-0.3584 4.7616c0 16.0256 11.8784 29.3376 27.2896 31.6416l4.7104 0.3584h161.536zM373.5552 418.7648a32 32 0 0 0 48.9472-40.8576l-3.7376-4.4032-213.2992-213.3504a32 32 0 0 0-48.9472 40.8064l3.6864 4.4544 213.3504 213.3504z" fill="#ffffff" p-id="1162"></path><path d="M170.6496 138.6496a32 32 0 0 0-31.6416 27.2896l-0.3584 4.7104v161.4848a32 32 0 0 0 63.6928 4.7104l0.3072-4.7104V202.6496h129.536a32 32 0 0 0 31.6416-27.2384l0.3584-4.7616a32 32 0 0 0-27.2896-31.6416l-4.7104-0.3584H170.6496zM373.5552 605.2352a32 32 0 0 1 48.9472 40.8576l-3.7376 4.4032-213.2992 213.3504a32 32 0 0 1-48.9472-40.8064l3.6864-4.4544 213.3504-213.3504z" fill="#ffffff" p-id="1163"></path><path d="M170.6496 885.3504a32 32 0 0 1-31.6416-27.2896l-0.3584-4.7104v-161.4848a32 32 0 0 1 63.6928-4.7104l0.3072 4.7104v129.4848h129.536c16.0256 0 29.3376 11.776 31.6416 27.2384l0.3584 4.7616a32 32 0 0 1-27.2896 31.6416l-4.7104 0.3584H170.6496z" fill="#ffffff" p-id="1164"></path><path d="M0 0h1024v1024H0z" fill="#ffffff" fill-opacity="0" p-id="1165"></path></svg>