<?xml version="1.0" encoding="UTF-8"?>
<svg width="300px" height="300px" viewBox="0 0 300 300" version="1.1" xmlns="http://www.w3.org/2000/svg" xmlns:xlink="http://www.w3.org/1999/xlink">
    <title>路线</title>
    <g id="页面-1" stroke="none" stroke-width="1" fill="none" fill-rule="evenodd">
        <g id="路线">
            <path d="M144.475124,240.377911 C143.692625,240.492869 142.902758,240.550467 142.111847,240.550245 C133.228638,240.550245 126.027158,233.35458 126.02631,224.477498 L126.02631,129.801614 C126.02631,125.47528 122.516669,121.968272 118.187349,121.968272 L89.43397,121.968272 C88.0375557,121.995474 86.6876473,121.466571 85.6818555,120.49817 C84.6760637,119.529768 84.0969772,118.201386 84.0722656,116.805888 C84.0722656,115.575842 84.5269131,114.385174 85.3656592,113.453006 L138.043325,54.3495967 C139.087387,53.2076717 140.563885,52.5571688 142.111741,52.5571688 C143.659598,52.5571688 145.136096,53.2076717 146.180158,54.3495967 L198.857823,113.453218 C199.781513,114.478206 200.242598,115.837769 200.132842,117.212758 C200.023086,118.587747 199.352154,119.857074 198.277544,120.722771 C197.294418,121.529444 196.061368,121.969713 194.789301,121.968272 L166.036133,121.968272 C161.706813,121.968272 158.197384,125.475492 158.197384,129.801826 L158.197384,165.876481 C172.110528,153.844256 190.317612,146.554803 210.245407,146.554803 L210.237569,146.554803 C214.416417,146.533976 218.432385,148.172924 221.401978,151.111088 C224.371571,154.049252 226.051528,158.045943 226.072266,162.221909 C226.072266,170.877964 218.985613,177.888805 210.237569,177.888805 C184.016317,177.888805 162.757206,198.929795 162.757206,224.889913 C162.757206,233.545967 155.670765,240.557169 146.922509,240.557169 C146.103388,240.560568 145.28522,240.500757 144.475336,240.378123 L144.475124,240.377911 Z" id="路径" fill="#FFFFFF" fill-rule="nonzero"></path>
            <circle id="椭圆形" stroke="#FFFFFF" stroke-width="8" cx="150" cy="150" r="146"></circle>
        </g>
    </g>
</svg>